# xmcd CD database file
#
# Track frame offsets:
#	150
#	19104
#	34963
#	46056
#	59925
#	75261
#	94006
#	108014
#	126596
#	143547
#	157837
#	172374
#	184582
#	206379
#	220997
#	231757
#
# Disc length: 3250 seconds
#
# Revision: 0
# Processed by: cddbd v1.5.2PL0 Copyright (c) Steve Scherf et al.
# Submitted via: ACXtractor (MTCDDB.DLL V2003.07.15)
#
DISCID=d60cb010
DTITLE=Calhoun Twins - Easy Come Easy Go
DYEAR=2005
DGENRE=Country
TTITLE0=Put It Off Until Tomorrow
TTITLE1=Making Believe
TTITLE2=I'm Gonna Steal Your Shoes
TTITLE3=Ebony Eyes
TTITLE4=Live and Let Live
TTITLE5=You Don't Have Very Far To Go
TTITLE6=Since My Baby Went Away
TTITLE7=Walking Piece of Heaven
TTITLE8=Sweet Dreams
TTITLE9=I Don't Care
TTITLE10=Cry Myself To Sleep
TTITLE11=Once More
TTITLE12=She Thinks I Still Care
TTITLE13=Easy Come Easy Go
TTITLE14=I'm Not Crazy Yet
TTITLE15=When I Stop Dreaming
EXTD=ID3G:   2 YEAR: 2005
EXTT0=
EXTT1=
EXTT2=
EXTT3=
EXTT4=
EXTT5=
EXTT6=
EXTT7=
EXTT8=
EXTT9=
EXTT10=
EXTT11=
EXTT12=
EXTT13=
EXTT14=
EXTT15=
PLAYORDER=
